<svg xmlns="http://www.w3.org/2000/svg">

    <symbol id = "bellSVG" viewBox="0 0 32 32">
        <path d="M32.047 25c0-9-8-7-8-14 0-0.58-0.056-1.076-0.158-1.498-0.526-3.532-2.88-6.366-5.93-7.23 0.027-0.123 0.041-0.251 0.041-0.382 0-1.040-0.9-1.891-2-1.891s-2 0.851-2 1.891c0 0.131 0.014 0.258 0.041 0.382-3.421 0.969-5.966 4.416-6.039 8.545-0.001 0.060-0.002 0.121-0.002 0.183 0 7-8 5-8 14 0 2.382 5.331 4.375 12.468 4.878 0.673 1.263 2.002 2.122 3.532 2.122s2.86-0.86 3.532-2.122c7.137-0.503 12.468-2.495 12.468-4.878 0-0.007-0.001-0.014-0.001-0.021l0.048 0.021zM25.82 26.691c-1.695 0.452-3.692 0.777-5.837 0.958-0.178-2.044-1.893-3.648-3.984-3.648s-3.805 1.604-3.984 3.648c-2.144-0.18-4.142-0.506-5.837-0.958-2.332-0.622-3.447-1.318-3.855-1.691 0.408-0.372 1.523-1.068 3.855-1.691 2.712-0.724 6.199-1.122 9.82-1.122s7.109 0.398 9.82 1.122c2.332 0.622 3.447 1.318 3.855 1.691-0.408 0.372-1.523 1.068-3.855 1.691z"></path>
    </symbol>

    <symbol id = "cartSVG" viewBox="0 0 32 32">
        <path d="M12 29c0 1.657-1.343 3-3 3s-3-1.343-3-3c0-1.657 1.343-3 3-3s3 1.343 3 3z"></path>
        <path d="M32 29c0 1.657-1.343 3-3 3s-3-1.343-3-3c0-1.657 1.343-3 3-3s3 1.343 3 3z"></path>
        <path d="M32 16v-12h-24c0-1.105-0.895-2-2-2h-6v2h4l1.502 12.877c-0.915 0.733-1.502 1.859-1.502 3.123 0 2.209 1.791 4 4 4h24v-2h-24c-1.105 0-2-0.895-2-2 0-0.007 0-0.014 0-0.020l26-3.98z"></path>
    </symbol>

    <symbol id = "envelopSVG" viewBox="0 0 32 32">
        <path d="M29 4h-26c-1.65 0-3 1.35-3 3v20c0 1.65 1.35 3 3 3h26c1.65 0 3-1.35 3-3v-20c0-1.65-1.35-3-3-3zM12.461 17.199l-8.461 6.59v-15.676l8.461 9.086zM5.512 8h20.976l-10.488 7.875-10.488-7.875zM12.79 17.553l3.21 3.447 3.21-3.447 6.58 8.447h-19.579l6.58-8.447zM19.539 17.199l8.461-9.086v15.676l-8.461-6.59z"></path>
    </symbol>

    <symbol id = "coolSVG" viewBox="0 0 32 32">
        <path d="M16 32c8.837 0 16-7.163 16-16s-7.163-16-16-16-16 7.163-16 16 7.163 16 16 16zM16 3c7.18 0 13 5.82 13 13s-5.82 13-13 13-13-5.82-13-13 5.82-13 13-13zM25 8c0.55 0 1 0.45 1 1v3c0 1.1-0.9 2-2 2h-4c-1.1 0-2-0.9-2-2h-4c0 1.1-0.9 2-2 2h-4c-1.1 0-2-0.9-2-2v-3c0-0.55 0.45-1 1-1h6c0.55 0 1 0.45 1 1v1h4v-1c0-0.55 0.45-1 1-1h6zM16 24c2.913 0 5.462-1.557 6.861-3.884l1.715 1.029c-1.749 2.908-4.935 4.855-8.576 4.855-1.514 0-2.95-0.337-4.236-0.94l1.036-1.727c0.98 0.429 2.061 0.668 3.199 0.668z"></path>
    </symbol>

    <symbol id = "evilSVG" viewBox="0 0 32 32">
        <path d="M20 14c-1.105 0-2-0.895-2-2 0-0.037 0.001-0.073 0.003-0.109 0.064-1.483 1.413-2.467 2.55-3.036 1.086-0.543 2.159-0.814 2.205-0.826 0.536-0.134 1.079 0.192 1.213 0.728s-0.192 1.079-0.728 1.213c-0.551 0.139-1.204 0.379-1.779 0.667 0.333 0.357 0.537 0.836 0.537 1.363 0 1.105-0.895 2-2 2zM8.758 9.97c-0.536-0.134-0.862-0.677-0.728-1.213s0.677-0.862 1.213-0.728c0.045 0.011 1.119 0.283 2.205 0.826 1.137 0.568 2.486 1.553 2.55 3.036 0.002 0.036 0.003 0.072 0.003 0.109 0 1.105-0.895 2-2 2s-2-0.895-2-2c0-0.527 0.204-1.005 0.537-1.363-0.575-0.288-1.229-0.528-1.779-0.667zM16 23c2.549 0 4.779-1.362 6.003-3.398l2.573 1.544c-1.749 2.908-4.935 4.855-8.576 4.855s-6.827-1.946-8.576-4.855l2.573-1.544c1.224 2.036 3.454 3.398 6.003 3.398zM32 2c0-1.422-0.298-2.775-0.833-4-1.049 2.401-3.014 4.31-5.453 5.287-2.694-2.061-6.061-3.287-9.714-3.287s-7.021 1.226-9.714 3.287c-2.439-0.976-4.404-2.886-5.453-5.287-0.535 1.225-0.833 2.578-0.833 4 0 2.299 0.777 4.417 2.081 6.106-1.324 2.329-2.081 5.023-2.081 7.894 0 8.837 7.163 16 16 16s16-7.163 16-16c0-2.871-0.757-5.565-2.081-7.894 1.304-1.689 2.081-3.806 2.081-6.106zM16 29c-7.18 0-13-5.82-13-13s5.82-13 13-13 13 5.82 13 13-5.82 13-13 13z"></path>
    </symbol>

    <symbol id = "facebookSVG" viewBox="0 0 32 32">
        <path d="M29 0h-26c-1.65 0-3 1.35-3 3v26c0 1.65 1.35 3 3 3h13v-14h-4v-4h4v-2c0-3.306 2.694-6 6-6h4v4h-4c-1.1 0-2 0.9-2 2v2h6l-1 4h-5v14h9c1.65 0 3-1.35 3-3v-26c0-1.65-1.35-3-3-3z"></path>

    </symbol>

    <symbol id = "fireSVG" viewBox="0 0 32 32">
        <path d="M10.031 32c-2.133-4.438-0.997-6.981 0.642-9.376 1.795-2.624 2.258-5.221 2.258-5.221s1.411 1.834 0.847 4.703c2.493-2.775 2.963-7.196 2.587-8.889 5.635 3.938 8.043 12.464 4.798 18.783 17.262-9.767 4.294-24.38 2.036-26.027 0.753 1.646 0.895 4.433-0.625 5.785-2.573-9.759-8.937-11.759-8.937-11.759 0.753 5.033-2.728 10.536-6.084 14.648-0.118-2.007-0.243-3.392-1.298-5.312-0.237 3.646-3.023 6.617-3.777 10.27-1.022 4.946 0.765 8.568 7.555 12.394z"></path>
    </symbol>

    <symbol id = "giftSVG" viewBox="0 0 32 32">
        <path d="M24.11 10c0.566-0.402 1.11-0.851 1.608-1.348 1.044-1.044 1.742-2.328 1.966-3.616 0.246-1.412-0.115-2.723-0.988-3.597-0.697-0.697-1.641-1.065-2.73-1.065-1.551 0-3.185 0.744-4.483 2.043-2.077 2.077-3.288 4.945-3.94 6.991-0.482-2.056-1.444-4.833-3.313-6.702-1.003-1.003-2.285-1.518-3.495-1.518-0.989 0-1.931 0.344-2.633 1.046-1.562 1.562-1.351 4.306 0.471 6.128 0.65 0.65 1.409 1.189 2.21 1.638h-6.782v8h2v14h24v-14h2v-8h-5.89zM21.073 4.007c0.866-0.866 1.948-1.384 2.892-1.384 0.334 0 0.803 0.070 1.139 0.406 0.813 0.813 0.357 2.697-0.977 4.031-1.373 1.373-3.221 2.318-4.826 2.939h-1.584c0.58-1.798 1.627-4.264 3.356-5.993zM7.31 5.028c-0.022-0.285-0.002-0.82 0.381-1.203 0.32-0.32 0.743-0.387 1.042-0.387v0c0.664 0 1.358 0.313 1.904 0.859 1.059 1.058 1.93 2.743 2.521 4.871 0.016 0.057 0.031 0.115 0.047 0.171-0.057-0.015-0.114-0.031-0.171-0.047-2.128-0.591-3.813-1.462-4.871-2.521-0.495-0.495-0.805-1.13-0.853-1.743zM14 30h-8v-13h8v13zM14 16h-10v-4h10v4zM26 30h-8v-13h8v13zM28 16h-10v-4h10v4z"></path>
    </symbol>

    <symbol id = "grinSVG" viewBox="0 0 32 32">
        <path d="M16 32c8.837 0 16-7.163 16-16s-7.163-16-16-16-16 7.163-16 16 7.163 16 16 16zM16 3c7.18 0 13 5.82 13 13s-5.82 13-13 13-13-5.82-13-13 5.82-13 13-13zM6 16v2c0 4.4 3.6 8 8 8h4c4.4 0 8-3.6 8-8v-2h-20zM12 23.656c-0.829-0.296-1.591-0.776-2.236-1.42-1.138-1.138-1.764-2.642-1.764-4.236h4v5.656zM18 24h-4v-6h4v6zM22.236 22.236c-0.645 0.645-1.407 1.125-2.236 1.42v-5.656h4c0 1.594-0.627 3.098-1.764 4.236zM7.042 12c0 0 0 0 0 0 0.305 0 0.566-0.22 0.616-0.522 0.192-1.146 1.177-1.978 2.341-1.978s2.149 0.832 2.341 1.978c0.050 0.301 0.311 0.522 0.616 0.522s0.566-0.22 0.616-0.521c0.034-0.201 0.051-0.404 0.051-0.604 0-1.999-1.626-3.625-3.625-3.625s-3.625 1.626-3.625 3.625c0 0.199 0.017 0.402 0.051 0.604 0.051 0.301 0.311 0.521 0.616 0.521zM19.042 12c0 0 0 0 0 0 0.305 0 0.566-0.22 0.616-0.522 0.192-1.146 1.177-1.978 2.341-1.978s2.149 0.832 2.341 1.978c0.050 0.301 0.311 0.522 0.616 0.522s0.566-0.22 0.616-0.521c0.034-0.201 0.051-0.404 0.051-0.604 0-1.999-1.626-3.625-3.625-3.625s-3.625 1.626-3.625 3.625c0 0.199 0.017 0.402 0.051 0.604 0.051 0.301 0.311 0.521 0.617 0.521z"></path>
    </symbol>

    <symbol id = "happySVG" viewBox="0 0 32 32">
        <path d="M16 32c8.837 0 16-7.163 16-16s-7.163-16-16-16-16 7.163-16 16 7.163 16 16 16zM16 3c7.18 0 13 5.82 13 13s-5.82 13-13 13-13-5.82-13-13 5.82-13 13-13zM16 18.711c3.623 0 7.070-0.963 10-2.654-0.455 5.576-4.785 9.942-10 9.942s-9.544-4.371-10-9.947c2.93 1.691 6.377 2.658 10 2.658zM8 11c0-1.657 0.895-3 2-3s2 1.343 2 3c0 1.657-0.895 3-2 3s-2-1.343-2-3zM20 11c0-1.657 0.895-3 2-3s2 1.343 2 3c0 1.657-0.895 3-2 3s-2-1.343-2-3z"></path>
    </symbol>

    <symbol id = "heartSVG" viewBox="0 0 32 32">
        <path d="M23.6 2c-3.363 0-6.258 2.736-7.599 5.594-1.342-2.858-4.237-5.594-7.601-5.594-4.637 0-8.4 3.764-8.4 8.401 0 9.433 9.516 11.906 16.001 21.232 6.13-9.268 15.999-12.1 15.999-21.232 0-4.637-3.763-8.401-8.4-8.401z"></path>
    </symbol>

    <symbol id = "homeSVG" viewBox="0 0 32 32">
        <path d="M32 19l-6-6v-9h-4v5l-6-6-16 16v1h4v10h10v-6h4v6h10v-10h4z"></path>
    </symbol>

    <symbol id = "hour_glassSVG" viewBox="0 0 32 32">
        <path d="M22.781 16c4.305-2.729 7.219-7.975 7.219-14 0-0.677-0.037-1.345-0.109-2h-27.783c-0.072 0.655-0.109 1.323-0.109 2 0 6.025 2.914 11.271 7.219 14-4.305 2.729-7.219 7.975-7.219 14 0 0.677 0.037 1.345 0.109 2h27.783c0.072-0.655 0.109-1.323 0.109-2 0-6.025-2.914-11.271-7.219-14zM5 30c0-5.841 2.505-10.794 7-12.428v-3.143c-4.495-1.634-7-6.587-7-12.428v0h22c0 5.841-2.505 10.794-7 12.428v3.143c4.495 1.634 7 6.587 7 12.428h-22zM19.363 20.925c-2.239-1.27-2.363-2.918-2.363-3.918v-2.007c0-1 0.119-2.654 2.367-3.927 1.203-0.699 2.244-1.761 3.033-3.073h-12.799c0.79 1.313 1.832 2.376 3.036 3.075 2.239 1.27 2.363 2.918 2.363 3.918v2.007c0 1-0.119 2.654-2.367 3.927-2.269 1.318-3.961 3.928-4.472 7.073h15.677c-0.511-3.147-2.204-5.758-4.475-7.075z"></path>
    </symbol>

    <symbol id = "phoneSVG" viewBox="0 0 32 32">
        <path d="M22 20c-2 2-2 4-4 4s-4-2-6-4-4-4-4-6 2-2 4-4-4-8-6-8-6 6-6 6c0 4 4.109 12.109 8 16s12 8 16 8c0 0 6-4 6-6s-6-8-8-6z"></path>
    </symbol>

    <symbol id = "powerSVG" viewBox="0 0 32 32">
        <path d="M12 0l-12 16h12l-8 16 28-20h-16l12-12z"></path>
    </symbol>

    <symbol id = "rocketSVG" viewBox="0 0 32 32">
        <path d="M22 2l-10 10h-6l-6 8c0 0 6.357-1.77 10.065-0.94l-10.065 12.94 13.184-10.255c1.839 4.208-1.184 10.255-1.184 10.255l8-6v-6l10-10 2-10-10 2z"></path>
    </symbol>

    <symbol id = "sleepySVG" viewBox="0 0 32 32">
        <path d="M16 32c8.837 0 16-7.163 16-16s-7.163-16-16-16-16 7.163-16 16 7.163 16 16 16zM16 3c7.18 0 13 5.82 13 13s-5.82 13-13 13-13-5.82-13-13 5.82-13 13-13z"></path>
        <path d="M20 21c0 2.761-1.791 5-4 5s-4-2.239-4-5c0-2.761 1.791-5 4-5s4 2.239 4 5z"></path>
        <path d="M13 10.625c-0.256 0-0.512-0.098-0.707-0.293-0.604-0.604-1.982-0.604-2.586 0-0.39 0.391-1.024 0.391-1.414 0s-0.391-1.024 0-1.414c1.392-1.392 4.023-1.392 5.414 0 0.391 0.39 0.391 1.024 0 1.414-0.195 0.195-0.451 0.293-0.707 0.293z"></path>
        <path d="M23 10.625c-0.256 0-0.512-0.098-0.707-0.293-0.604-0.604-1.982-0.604-2.586 0-0.39 0.391-1.024 0.391-1.414 0s-0.391-1.024 0-1.414c1.392-1.392 4.023-1.392 5.414 0 0.391 0.39 0.391 1.024 0 1.414-0.195 0.195-0.451 0.293-0.707 0.293z"></path>
    </symbol>

    <symbol id = "loginSVG" viewBox="0 0 512 512">
        <path d="M173.781,280.469c-4.16,4.16-4.16,10.923,0,15.083c2.091,2.069,4.821,3.115,7.552,3.115c2.731,0,5.461-1.045,7.531-3.115
				l64-64c0.981-0.981,1.771-2.176,2.304-3.477c0.299-0.747,0.341-1.515,0.469-2.304c0.107-0.597,0.363-1.152,0.363-1.771
				c0-0.811-0.299-1.536-0.469-2.283c-0.128-0.576-0.128-1.195-0.363-1.749c-0.555-1.344-1.365-2.539-2.368-3.563l-63.936-63.936
				c-4.16-4.16-10.923-4.16-15.083,0c-4.16,4.16-4.16,10.923,0,15.083l45.76,45.781H32c-5.888,0-10.667,4.779-10.667,10.667
				S26.112,234.667,32,234.667h187.584L173.781,280.469z"/>
        <path d="M444.608,0c-1.643,0-3.243,0.32-4.843,0.491C438.955,0.299,438.187,0,437.333,0h-256C151.936,0,128,23.936,128,53.333
				V160c0,5.888,4.779,10.667,10.667,10.667s10.667-4.779,10.667-10.667V53.333c0-17.643,14.357-32,32-32h204.032l-80.107,34.325
				c-16.96,7.275-27.925,23.893-27.925,42.347v328.661h-96c-15.339,0-28.373-10.667-31.552-15.083l-0.448-123.627
				c-0.021-5.867-4.8-10.624-10.667-10.624c0,0-0.021,0-0.043,0c-5.888,0.021-10.645,4.821-10.624,10.709l0.491,124.309
				c-0.427,4.672,1.771,9.557,6.677,14.933c8.725,9.557,26.048,20.715,46.165,20.715h96v17.941
				c0,25.387,20.672,46.059,46.059,46.059c6.293,0,12.416-1.259,18.133-3.712l121.216-51.947
				c16.96-7.275,27.925-23.893,27.925-42.347V46.059C490.667,20.672,469.995,0,444.608,0z M469.333,413.995
				c0,9.899-5.888,18.837-14.997,22.72L333.12,488.661c-3.072,1.344-6.357,2.005-9.728,2.005c-13.632,0-24.725-11.093-24.725-24.725
				V98.005c0-9.899,5.888-18.837,14.997-22.72L434.88,23.339c3.072-1.344,6.357-2.005,9.728-2.005
				c13.632,0,24.725,11.093,24.725,24.725V413.995z"/>
        <path d="M330.667,234.667c-5.888,0-10.667,4.779-10.667,10.667V288c0,5.888,4.779,10.667,10.667,10.667
				s10.667-4.779,10.667-10.667v-42.667C341.333,239.445,336.555,234.667,330.667,234.667z"/>
    </symbol>

    <symbol id = "tabSVG" viewBox="0 0 32 32">
        <path d="M30 0h2v16h-2v-16z"></path>
        <path d="M0 16h2v16h-2v-16z"></path>
        <path d="M10 22h22v4h-22v5l-7-7 7-7v5z"></path>
        <path d="M22 10h-22v-4h22v-5l7 7-7 7z"></path>
    </symbol>

    <symbol id = "tongueSVG" viewBox="0 0 32 32">
        <path d="M16 32c8.837 0 16-7.163 16-16s-7.163-16-16-16-16 7.163-16 16 7.163 16 16 16zM16 3c7.18 0 13 5.82 13 13s-5.82 13-13 13-13-5.82-13-13 5.82-13 13-13zM8 10c0-1.105 0.895-2 2-2s2 0.895 2 2c0 1.105-0.895 2-2 2s-2-0.895-2-2zM20 10c0-1.105 0.895-2 2-2s2 0.895 2 2c0 1.105-0.895 2-2 2s-2-0.895-2-2zM24 18v2h-2v3c0 1.657-1.343 3-3 3s-3-1.343-3-3v-3h-8v-2h16z"></path>
    </symbol>

    <symbol id = "smileSVG" viewBox="0 0 32 32">
        <path d="M16 32c8.837 0 16-7.163 16-16s-7.163-16-16-16-16 7.163-16 16 7.163 16 16 16zM16 3c7.18 0 13 5.82 13 13s-5.82 13-13 13-13-5.82-13-13 5.82-13 13-13zM8 10c0-1.105 0.895-2 2-2s2 0.895 2 2c0 1.105-0.895 2-2 2s-2-0.895-2-2zM20 10c0-1.105 0.895-2 2-2s2 0.895 2 2c0 1.105-0.895 2-2 2s-2-0.895-2-2zM22.003 19.602l2.573 1.544c-1.749 2.908-4.935 4.855-8.576 4.855s-6.827-1.946-8.576-4.855l2.573-1.544c1.224 2.036 3.454 3.398 6.003 3.398s4.779-1.362 6.003-3.398z"></path>
    </symbol>

    <symbol id = "menuSVG" viewBox="0 0 32 32">
        <path d="M2 6h28v6h-28zM2 14h28v6h-28zM2 22h28v6h-28z"></path>
    </symbol>

    <symbol id = "vkSVG" viewBox="0 0 32 32">
        <path d="M29 0h-26c-1.65 0-3 1.35-3 3v26c0 1.65 1.35 3 3 3h26c1.65 0 3-1.35 3-3v-26c0-1.65-1.35-3-3-3zM25.919 22.4l-2.925 0.044c0 0-0.631 0.125-1.456-0.444-1.094-0.75-2.125-2.706-2.931-2.45-0.813 0.256-0.788 2.012-0.788 2.012s0.006 0.375-0.181 0.575c-0.2 0.219-0.6 0.262-0.6 0.262h-1.306c0 0-2.888 0.175-5.431-2.475-2.775-2.887-5.225-8.619-5.225-8.619s-0.144-0.375 0.013-0.556c0.175-0.206 0.644-0.219 0.644-0.219l3.131-0.019c0 0 0.294 0.050 0.506 0.206 0.175 0.125 0.269 0.369 0.269 0.369s0.506 1.281 1.175 2.438c1.306 2.256 1.919 2.75 2.362 2.513 0.644-0.35 0.45-3.194 0.45-3.194s0.012-1.031-0.325-1.488c-0.262-0.356-0.756-0.463-0.969-0.488-0.175-0.025 0.113-0.431 0.488-0.619 0.563-0.275 1.556-0.294 2.731-0.281 0.913 0.006 1.181 0.069 1.538 0.15 1.081 0.262 0.712 1.269 0.712 3.681 0 0.775-0.137 1.863 0.419 2.219 0.238 0.156 0.825 0.025 2.294-2.469 0.694-1.181 1.219-2.569 1.219-2.569s0.113-0.25 0.288-0.356c0.181-0.106 0.425-0.075 0.425-0.075l3.294-0.019c0 0 0.988-0.119 1.15 0.331 0.169 0.469-0.369 1.563-1.712 3.356-2.206 2.944-2.456 2.669-0.619 4.369 1.75 1.625 2.113 2.419 2.175 2.519 0.712 1.2-0.813 1.294-0.813 1.294z"></path>
    </symbol>

    <symbol id = "winkSVG" viewBox="0 0 32 32">
        <path d="M16 32c8.837 0 16-7.163 16-16s-7.163-16-16-16-16 7.163-16 16 7.163 16 16 16zM16 3c7.18 0 13 5.82 13 13s-5.82 13-13 13-13-5.82-13-13 5.82-13 13-13zM16.961 22.22c4.383-0.866 7.785-2.861 9.014-5.519-0.677 5.249-5.047 9.299-10.339 9.299-3.726 0-6.996-2.009-8.84-5.030 2.2 1.721 6.079 2.056 10.165 1.249zM20 11c0-1.657 0.895-3 2-3s2 1.343 2 3c0 1.657-0.895 3-2 3s-2-1.343-2-3zM11 11.609c-1.306 0-2.417 0.489-2.829 1.172-0.111-0.183-0.171-1.005-0.171-1.211 0-0.971 1.343-1.758 3-1.758s3 0.787 3 1.758c0 0.206-0.061 1.028-0.171 1.211-0.412-0.683-1.522-1.172-2.829-1.172z"></path>
    </symbol>

    <symbol id = "tumbler2SVG" viewBox="0 0 32 32">
        <path d="M29 0h-26c-1.65 0-3 1.35-3 3v26c0 1.65 1.35 3 3 3h26c1.65 0 3-1.35 3-3v-26c0-1.65-1.35-3-3-3zM22.869 25.769c-0.944 0.444-1.8 0.756-2.563 0.938-0.762 0.175-1.594 0.269-2.481 0.269-1.012 0-1.606-0.125-2.381-0.381s-1.438-0.619-1.988-1.087c-0.55-0.475-0.925-0.975-1.137-1.506s-0.319-1.3-0.319-2.313v-7.744h-3v-3.125c0.869-0.281 1.875-0.688 2.488-1.213 0.619-0.525 1.119-1.156 1.488-1.894 0.375-0.737 0.631-1.675 0.775-2.813h3.138v5.1h5.113v3.944h-5.106v5.662c0 1.281-0.019 2.019 0.119 2.381s0.475 0.738 0.844 0.95c0.488 0.294 1.050 0.438 1.675 0.438 1.119 0 2.231-0.363 3.337-1.087v3.481z"></path>
    </symbol>

    <symbol id = "searchSVG" viewBox="0 0 32 32">
        <path d="M31.008 27.231l-7.58-6.447c-0.784-0.705-1.622-1.029-2.299-0.998 1.789-2.096 2.87-4.815 2.87-7.787 0-6.627-5.373-12-12-12s-12 5.373-12 12 5.373 12 12 12c2.972 0 5.691-1.081 7.787-2.87-0.031 0.677 0.293 1.515 0.998 2.299l6.447 7.58c1.104 1.226 2.907 1.33 4.007 0.23s0.997-2.903-0.23-4.007zM12 20c-4.418 0-8-3.582-8-8s3.582-8 8-8 8 3.582 8 8-3.582 8-8 8z"></path>
    </symbol>


</svg>
